HIERARCHY
ROOT pelvis
{
	OFFSET 0.000000 0.000000 0.000000
	CHANNELS 6 Xposition Yposition Zposition Zrotation Yrotation Xrotation
	JOINT left_hip
	{
		OFFSET 0.055779 -0.080629 -0.017705
		CHANNELS 3 Zrotation Yrotation Xrotation
		JOINT left_knee
		{
			OFFSET 0.039469 -0.359247 0.009008
			CHANNELS 3 Zrotation Yrotation Xrotation
			JOINT left_ankle
			{
				OFFSET -0.013809 -0.389899 -0.036404
				CHANNELS 3 Zrotation Yrotation Xrotation
				JOINT left_foot
				{
					OFFSET 0.037897 -0.056346 0.116500
					CHANNELS 3 Zrotation Yrotation Xrotation
					End Site
					{
						OFFSET 0.000000 0.000000 0.000000
					}
				}
			}
		}
	}
	JOINT right_hip
	{
		OFFSET -0.057787 -0.088871 -0.013401
		CHANNELS 3 Zrotation Yrotation Xrotation
		JOINT right_knee
		{
			OFFSET -0.039496 -0.356943 -0.002206
			CHANNELS 3 Zrotation Yrotation Xrotation
			JOINT right_ankle
			{
				OFFSET 0.017959 -0.383749 -0.033094
				CHANNELS 3 Zrotation Yrotation Xrotation
				JOINT right_foot
				{
					OFFSET -0.031235 -0.058281 0.124713
					CHANNELS 3 Zrotation Yrotation Xrotation
					End Site
					{
						OFFSET 0.000000 0.000000 0.000000
					}
				}
			}
		}
	}
	JOINT spine1
	{
		OFFSET 0.004196 0.122659 -0.034271
		CHANNELS 3 Zrotation Yrotation Xrotation
		JOINT spine2
		{
			OFFSET 0.005122 0.143143 0.029537
			CHANNELS 3 Zrotation Yrotation Xrotation
			JOINT spine3
			{
				OFFSET -0.001923 0.057757 0.004628
				CHANNELS 3 Zrotation Yrotation Xrotation
				JOINT neck
				{
					OFFSET -0.013781 0.203940 -0.035143
					CHANNELS 3 Zrotation Yrotation Xrotation
					JOINT head
					{
						OFFSET 0.009065 0.086539 0.049216
						CHANNELS 3 Zrotation Yrotation Xrotation
						End Site
						{
							OFFSET 0.000000 0.000000 0.000000
						}
					}
				}
				JOINT left_collar
				{
					OFFSET 0.070315 0.109742 -0.020357
					CHANNELS 3 Zrotation Yrotation Xrotation
					JOINT left_shoulder
					{
						OFFSET 0.122280 0.043464 -0.020451
						CHANNELS 3 Zrotation Yrotation Xrotation
						JOINT left_elbow
						{
							OFFSET 0.245347 -0.013316 -0.020298
							CHANNELS 3 Zrotation Yrotation Xrotation
							JOINT left_wrist
							{
								OFFSET 0.251466 0.010925 -0.008411
								CHANNELS 3 Zrotation Yrotation Xrotation
								End Site
								{
									OFFSET 0.000000 0.000000 0.000000
								}
							}
						}
					}
				}
				JOINT right_collar
				{
					OFFSET -0.083386 0.108780 -0.024575
					CHANNELS 3 Zrotation Yrotation Xrotation
					JOINT right_shoulder
					{
						OFFSET -0.112806 0.044731 -0.008805
						CHANNELS 3 Zrotation Yrotation Xrotation
						JOINT right_elbow
						{
							OFFSET -0.248827 -0.010357 -0.028458
							CHANNELS 3 Zrotation Yrotation Xrotation
							JOINT right_wrist
							{
								OFFSET -0.255561 0.006434 -0.006231
								CHANNELS 3 Zrotation Yrotation Xrotation
								End Site
								{
									OFFSET 0.000000 0.000000 0.000000
								}
							}
						}
					}
				}
			}
		}
	}
}
MOTION
Frames: 10
Frame Time: 0.033333
0.002176 0.572081 -1.653477 0.000000 0.000000 0.000000 -1.810134 0.171664 -6.943011 -0.014785 -0.091244 7.012639 0.488345 -0.053911 -0.074354 0.000000 0.000000 0.000000 -0.871273 -0.002592 -1.924090 -0.006169 -0.072297 -2.078622 -0.442427 0.131048 3.997940 0.000000 0.000000 0.000000 -1.744267 -0.047627 -0.003245 0.000000 0.000000 0.000000 -0.481541 -0.083391 0.001210 0.000000 0.000000 0.000000 0.000000 0.000000 0.000000 0.000000 0.000000 0.000000 0.000000 0.000000 0.000000 0.000000 0.000000 0.000000 0.000000 0.000000 0.000000 0.000000 0.000000 0.000000 0.000000 0.000000 0.000000 0.000000 0.000000 0.000000 0.000000 0.000000 0.000000
-0.039905 0.539494 -1.696871 -14.360000 -25.493000 11.505000 8.428746 36.854678 -80.736830 0.567285 -0.958236 82.133584 0.198316 -4.234811 -4.660923 0.000000 0.000000 0.000000 -9.328763 0.508563 14.825397 1.292147 2.100278 29.497472 1.649842 -34.399674 -21.967371 0.000000 0.000000 0.000000 11.269671 2.164259 3.730285 0.000000 0.000000 0.000000 3.167325 0.619544 -5.843543 -6.292605 -4.593746 10.055035 9.066176 -7.614794 -12.967724 0.000000 0.000000 0.000000 -61.829263 -32.239660 36.280058 22.306127 -30.697252 -10.891387 -0.919510 -3.733335 27.664119 0.000000 0.000000 0.000000 58.521762 -30.010975 63.425936 -116.487349 47.041255 -89.358405 2.672074 -5.976310 -48.148891
-0.039792 0.539514 -1.696882 -14.291900 -25.532800 11.450600 8.391578 36.894911 -80.655725 0.569956 -0.956403 82.076748 0.194558 -4.289285 -4.637387 0.000000 0.000000 0.000000 -9.380653 0.529370 14.831748 1.290864 2.098281 29.503937 1.639007 -34.429121 -21.931118 0.000000 0.000000 0.000000 11.151282 2.101714 3.762465 0.000000 0.000000 0.000000 3.232807 0.606137 -5.889321 -6.244195 -4.590802 10.194555 9.107035 -7.591157 -13.339236 0.000000 0.000000 0.000000 -61.787414 -32.229572 36.166244 22.224913 -30.617249 -10.837094 -0.925766 -3.745208 27.759885 0.000000 0.000000 0.000000 58.378396 -29.976293 63.621806 -116.420050 47.067154 -89.302778 2.672022 -5.976261 -48.148379
-0.039728 0.539543 -1.697038 -14.271500 -25.505800 11.477100 8.354329 36.857235 -80.679684 0.568057 -0.954985 82.030245 0.201310 -4.245507 -4.570287 0.000000 0.000000 0.000000 -9.365350 0.528925 14.871248 1.284366 2.095272 29.396480 1.635034 -34.450181 -21.811334 0.000000 0.000000 0.000000 11.140390 2.042755 3.661420 0.000000 0.000000 0.000000 3.243574 0.586401 -5.866998 -6.243897 -4.587986 10.059769 9.059603 -7.607556 -12.978402 0.000000 0.000000 0.000000 -61.800336 -32.267566 36.000647 22.085754 -30.479352 -10.744086 -0.936279 -3.765067 27.920412 0.000000 0.000000 0.000000 58.269500 -30.000489 63.727487 -116.455725 47.053577 -89.332123 2.672061 -5.976302 -48.148789
-0.039709 0.539711 -1.697143 -14.265500 -25.479400 11.506100 8.361197 36.784850 -80.682920 0.564915 -0.953908 81.986911 0.204147 -4.189897 -4.530102 0.000000 0.000000 0.000000 -9.367595 0.483296 14.843740 1.283683 2.094304 29.399462 1.633013 -34.412339 -21.790267 0.000000 0.000000 0.000000 11.143336 2.000582 3.602739 0.000000 0.000000 0.000000 3.255028 0.577149 -5.821486 -6.254098 -4.600002 9.886604 9.004315 -7.649011 -12.650806 0.000000 0.000000 0.000000 -61.836522 -32.319069 35.814675 22.015349 -30.409458 -10.697168 -0.941351 -3.774594 27.997558 0.000000 0.000000 0.000000 58.206784 -30.000059 63.720411 -116.526518 47.026082 -89.390736 2.668970 -5.973554 -48.119113
-0.039721 0.539963 -1.697059 -14.219300 -25.569300 11.440200 8.393558 36.806779 -80.533906 0.561241 -0.952297 81.931937 0.205580 -4.127687 -4.533995 0.000000 0.000000 0.000000 -9.446976 0.502214 14.795281 1.287075 2.092704 29.491510 1.632613 -34.336618 -21.907263 0.000000 0.000000 0.000000 11.066739 2.029325 3.686966 0.000000 0.000000 0.000000 3.266636 0.582053 -5.788530 -6.206797 -4.613298 9.792797 8.942715 -7.681544 -12.591118 0.000000 0.000000 0.000000 -61.829695 -32.361894 35.681615 22.011868 -30.406198 -10.693405 -0.943868 -3.779319 28.035830 0.000000 0.000000 0.000000 58.188470 -29.952942 63.714975 -116.605020 46.995588 -89.455620 2.673519 -5.977593 -48.162706
-0.039859 0.540332 -1.696892 -14.218600 -25.660200 11.334200 8.531852 36.819780 -80.298632 0.553162 -0.951649 81.885643 0.209155 -4.051868 -4.534899 0.000000 0.000000 0.000000 -9.440620 0.605285 14.900851 1.280628 2.088665 29.422366 1.632883 -34.304894 -21.942251 0.000000 0.000000 0.000000 11.070981 2.042183 3.821471 0.000000 0.000000 0.000000 3.241831 0.589186 -5.767576 -6.191605 -4.618390 9.745299 8.920153 -7.691545 -12.580617 0.000000 0.000000 0.000000 -61.790215 -32.394384 35.658219 21.990430 -30.384833 -10.680710 -0.943229 -3.778129 28.026162 0.000000 0.000000 0.000000 58.180886 -29.904275 63.760095 -116.666993 46.973919 -89.506822 2.667696 -5.972407 -48.106833
-0.039999 0.540639 -1.696934 -14.267700 -25.688800 11.317200 8.686875 36.777890 -80.162743 0.544252 -0.952000 81.853866 0.209758 -3.985669 -4.530350 0.000000 0.000000 0.000000 -9.392793 0.638124 14.997152 1.268826 2.085333 29.298090 1.633511 -34.281659 -21.851117 0.000000 0.000000 0.000000 11.145989 2.032717 3.878704 0.000000 0.000000 0.000000 3.182000 0.589373 -5.736925 -6.241097 -4.638801 9.601297 9.013928 -7.704986 -12.495008 0.000000 0.000000 0.000000 -61.733337 -32.448082 35.578339 21.945890 -30.340467 -10.651029 -0.948074 -3.787183 28.099485 0.000000 0.000000 0.000000 58.182542 -29.844215 63.817652 -116.670753 46.973144 -89.509943 2.651070 -5.957518 -47.946806
-0.039957 0.540784 -1.697174 -14.237800 -25.724900 11.343100 8.685050 36.756265 -80.132423 0.539935 -0.949718 81.791988 0.209219 -3.935359 -4.518476 0.000000 0.000000 0.000000 -9.448256 0.605141 14.901950 1.271950 2.083510 29.338688 1.640076 -34.243355 -21.858266 0.000000 0.000000 0.000000 11.092912 2.064947 3.885327 0.000000 0.000000 0.000000 3.149610 0.593871 -5.723418 -6.275303 -4.668302 9.548401 9.123389 -7.725550 -12.683010 0.000000 0.000000 0.000000 -61.706545 -32.499425 35.460250 21.923708 -30.318283 -10.636138 -0.951804 -3.794152 28.155990 0.000000 0.000000 0.000000 58.204769 -29.803300 63.818805 -116.653090 46.975526 -89.495329 2.650086 -5.956640 -47.937394
-0.039854 0.540863 -1.697550 -14.176700 -25.762500 11.336600 8.634450 36.777033 -80.105797 0.540830 -0.946930 81.728753 0.206134 -3.962151 -4.499266 0.000000 0.000000 0.000000 -9.507943 0.602658 14.826739 1.274760 2.082822 29.386415 1.629071 -34.281936 -21.841267 0.000000 0.000000 0.000000 10.973275 2.126477 3.935955 0.000000 0.000000 0.000000 3.145657 0.611817 -5.713637 -6.270396 -4.672801 9.578596 9.196843 -7.698620 -13.083998 0.000000 0.000000 0.000000 -61.704568 -32.616146 35.372107 21.882405 -30.276987 -10.608752 -0.950654 -3.792019 28.138666 0.000000 0.000000 0.000000 58.249435 -29.831699 63.744734 -116.690957 46.962074 -89.526627 2.655379 -5.961390 -47.988345
